<svg version="1.1" id="Layer_1" xmlns="http://www.w3.org/2000/svg" xmlns:xlink="http://www.w3.org/1999/xlink" x="0px" y="0px"
	 width="100%" viewBox="0 0 656 336" enable-background="new 0 0 656 336" xml:space="preserve">
<path fill="#000000" opacity="1.000000" stroke="none" 
	d="
M567.003174,231.948853 
	C572.607483,236.131958 578.128174,239.855484 583.167603,244.144409 
	C590.774170,250.618286 594.885010,258.890350 594.335510,269.125854 
	C594.122070,273.101746 594.923401,277.136230 593.839478,281.055115 
	C592.124939,287.253510 588.752563,288.789581 582.992188,285.950562 
	C574.610046,281.819458 567.415833,275.833496 559.691528,270.687927 
	C539.380310,257.157471 519.296936,243.285309 499.104828,229.575760 
	C482.511536,218.309677 465.892426,207.081573 448.869415,195.555374 
	C439.176849,208.624771 429.501404,221.265717 420.357361,234.280029 
	C418.012085,237.617966 418.887115,242.593658 415.685699,246.051147 
	C407.323853,255.081818 399.083984,264.278687 387.919006,269.927307 
	C382.337372,272.751160 378.632629,271.867584 375.976532,267.886902 
	C373.637299,264.381165 374.270264,260.625061 375.924408,256.980652 
	C379.136658,249.903503 384.574463,244.421341 389.334869,238.475342 
	C403.425476,220.875259 417.650543,203.382858 431.798096,185.828278 
	C433.486542,183.733231 433.725464,181.643707 432.496338,178.943405 
	C425.745728,164.113022 430.790985,151.792465 444.020355,143.614929 
	C451.928619,138.726578 459.913483,133.807999 468.351959,129.978363 
	C475.602539,126.687813 480.233917,121.289421 484.638489,115.174309 
	C494.737518,101.153267 505.306061,87.453812 513.677307,72.272141 
	C514.727417,70.367737 516.678223,68.322426 514.508301,65.931541 
	C512.502625,63.721615 510.009186,64.245987 507.537628,64.843636 
	C491.996521,68.601677 477.275055,74.665604 462.584991,80.820038 
	C433.889679,92.842003 405.903259,106.375145 378.119049,120.345848 
	C373.571747,122.632385 368.860596,123.026619 364.560974,119.732498 
	C359.882904,116.148422 360.063141,111.036896 361.110168,106.045280 
	C361.854889,102.494850 363.266357,99.064964 364.591553,95.663589 
	C365.272064,93.916969 365.932983,92.289635 365.057587,89.958878 
	C359.223969,93.590439 355.409607,99.141891 351.309692,104.078262 
	C339.121216,118.753510 327.499664,133.907227 317.312561,150.083908 
	C304.072388,171.108704 292.109192,192.750977 285.989777,217.094360 
	C284.778473,221.912918 283.991730,226.854477 284.381714,231.880661 
	C285.133392,241.567749 291.750732,246.404160 301.210754,244.235428 
	C311.028442,241.984711 318.867981,235.975403 327.060333,230.650940 
	C338.485870,223.225174 349.922363,215.813400 360.771637,207.542068 
	C361.764038,206.785492 362.796478,205.713196 364.973480,206.380966 
	C365.190399,212.544312 366.529724,217.978317 360.036682,223.619308 
	C348.046295,234.036224 336.417236,244.891479 323.752899,254.499161 
	C311.307983,263.940369 298.577850,273.284058 283.509766,278.000214 
	C265.403259,283.667358 248.275528,272.356567 244.723282,253.153763 
	C241.564972,236.080460 245.030884,219.843292 251.418350,204.038635 
	C259.167938,184.863647 271.115265,168.315781 283.581940,152.030045 
	C295.497498,136.464325 308.949219,122.189285 320.983337,106.735077 
	C322.283905,105.064865 324.452179,103.282333 322.551758,101.184235 
	C320.676453,99.113846 318.646027,100.923157 316.825104,102.127159 
	C305.837097,109.392479 296.090149,118.133789 286.801758,127.407341 
	C282.806091,131.396606 278.127533,134.582840 274.271545,138.764542 
	C259.859741,154.393631 244.899170,169.532700 230.862823,185.487549 
	C216.765259,201.512009 203.416748,218.197845 190.029205,234.838852 
	C181.735413,245.148254 174.070419,256.002075 164.754852,265.475311 
	C157.594925,272.756409 151.923294,272.145782 148.095627,262.773651 
	C141.564941,246.782990 139.782227,231.278229 150.762299,215.550613 
	C166.268341,193.340088 183.015945,172.042648 198.209091,149.615494 
	C209.791351,132.518478 220.455902,114.871094 230.334396,96.763847 
	C233.230057,91.456108 235.919434,85.796310 235.681274,79.324516 
	C235.461258,73.345688 234.079971,72.338951 228.774887,74.739105 
	C222.785568,77.448845 217.872971,81.758385 213.186783,86.125916 
	C186.583282,110.920349 164.416702,139.530243 142.868958,168.656494 
	C122.194672,196.602081 103.402512,225.804108 84.928101,255.220490 
	C84.662766,255.642975 84.335732,256.026215 84.057861,256.441406 
	C76.835220,267.233704 69.451096,267.347595 63.064964,256.250153 
	C57.986969,247.425858 54.582939,237.908493 54.628826,227.454956 
	C54.641968,224.462128 55.561752,221.839096 57.287971,219.558762 
	C71.225418,201.147278 84.742279,182.442413 97.764755,163.365265 
	C112.963043,141.100662 127.590256,118.506042 139.613037,94.341606 
	C143.456253,86.617188 146.790833,78.617401 148.287308,70.018318 
	C148.894760,66.527824 149.381210,62.913074 146.428833,60.187672 
	C143.430923,57.420238 139.890182,58.185719 136.546082,59.470997 
	C122.044151,65.044670 108.892891,73.212242 95.555145,81.010437 
	C80.068558,90.065010 64.992119,99.824715 49.003281,108.015701 
	C44.258953,110.446198 39.423004,112.624870 34.220211,113.879539 
	C26.685186,115.696632 23.042084,113.111473 23.758703,105.505783 
	C24.894434,93.451942 26.869230,81.461548 31.039837,70.036324 
	C33.337906,63.740849 38.718578,59.592937 43.651890,55.439117 
	C50.243366,49.889130 57.199108,44.756386 64.175293,39.687920 
	C66.305756,38.140057 68.700684,35.478661 72.394859,38.552139 
	C66.778824,44.030739 60.515381,48.638283 55.522980,56.179428 
	C61.991283,54.587620 66.144623,51.462402 70.527008,48.988224 
	C93.177032,36.200653 116.546379,25.144394 141.770996,18.380299 
	C143.849365,17.822975 145.962662,17.385962 148.073486,16.961432 
	C155.197617,15.528618 158.859039,17.054827 162.801971,23.330597 
	C169.318298,33.702320 174.979950,44.600300 174.141281,57.203335 
	C173.452393,67.555534 168.900528,77.025070 164.816284,86.479881 
	C158.083038,102.066925 150.584915,117.290176 142.952713,132.450500 
	C142.316299,133.714676 141.362381,134.994247 142.067200,137.145065 
	C146.735138,132.991760 150.037445,128.040543 153.878586,123.596840 
	C163.319992,112.674309 172.653107,101.658203 182.039261,90.687851 
	C188.191742,83.496964 194.225357,76.192734 201.099899,69.661362 
	C216.306519,55.213852 232.422562,41.938080 250.758011,31.571789 
	C253.942017,29.771648 257.201660,28.033895 260.942688,27.682091 
	C269.353577,26.891132 277.747711,35.162205 279.393066,45.052277 
	C281.042267,54.965607 276.683838,63.243786 272.768555,71.547539 
	C259.696747,99.270943 243.767197,125.436089 228.367294,151.886078 
	C226.374908,155.308090 224.593369,158.852859 222.314377,163.082794 
	C226.904251,160.860260 229.330994,157.453674 232.109756,154.534454 
	C242.080734,144.059631 251.855774,133.398178 261.835175,122.931503 
	C272.399292,111.851578 283.059967,100.862389 293.774170,89.927361 
	C304.968292,78.502541 318.059448,69.283638 330.165192,58.917023 
	C338.732147,51.580811 347.266602,44.205868 355.900299,36.949017 
	C357.790894,35.359901 359.938049,33.994545 362.145599,32.879620 
	C368.062378,29.891272 373.363159,31.449686 377.468414,36.746292 
	C381.747620,42.267353 385.336151,48.223370 388.999298,54.466003 
	C397.869263,51.119881 404.878784,43.733418 416.104675,42.525379 
	C412.140320,49.614895 404.979004,51.979542 402.456055,58.247242 
	C404.534393,59.993069 406.141815,58.510845 407.734253,57.993202 
	C434.580414,49.266441 461.043945,39.326923 488.399597,32.220772 
	C497.525330,29.850189 506.787659,28.038078 516.286560,27.574366 
	C523.379211,27.228115 528.544128,30.025362 531.973022,36.039387 
	C533.947510,39.502430 535.564758,43.171070 537.304199,46.765820 
	C540.908936,54.215157 538.977905,60.940426 534.650574,67.402710 
	C526.424744,79.686852 518.245667,92.002357 510.081940,104.327850 
	C509.465118,105.259094 509.124176,106.373062 508.669830,107.369553 
	C509.737946,108.045181 510.496643,107.555222 511.205505,107.209373 
	C539.327759,93.489395 567.073059,79.041351 594.645691,64.249146 
	C608.422607,56.858093 622.421936,49.880894 636.338379,42.751083 
	C638.991943,41.391556 641.747192,40.748734 644.141052,43.243355 
	C646.360596,45.556324 645.115845,47.951157 643.868408,50.119564 
	C637.302368,61.532932 630.062378,72.426956 619.574524,80.736107 
	C615.881592,83.661896 611.983948,85.387947 607.132263,83.629990 
	C604.183899,82.561653 601.634949,84.195351 599.099182,85.462914 
	C568.279724,100.868668 537.463318,116.280304 506.628326,131.654907 
	C504.407135,132.762421 502.111420,133.803116 499.742798,134.518860 
	C484.151123,139.230331 477.685608,152.524811 470.056183,165.804871 
	C502.363647,187.846436 534.533875,209.794403 567.003174,231.948853 
z"/>
</svg>